<?xml version="1.0" encoding="UTF-8"?>
<svg xmlns:xlink="http://www.w3.org/1999/xlink" xmlns="http://www.w3.org/2000/svg" viewBox="0 0 1591.22 330.86" width="1591.22"  height="330.86" ><defs><style>.cls-1{fill:#95aba0;}</style></defs><g id="Layer_2"><g id="Layer_1-2"><path class="cls-1" d="M1437.6,0h69.94V330.86H1437.6Zm83.69,0h69.93V330.86h-69.93ZM173.6,0h69.94V275.8H285.2v55.06H173.6ZM103.66,330.86h65.48L127.47,0H41.66L0,330.86H65.47l4-55.06h30.3ZM73.29,221.74,84.57,64.24l11.28,157.5Zm320,109.12H458.8L417.14,0H331.33L289.67,330.86h65.47l3.94-55.06h30.31ZM363,221.74l11.28-157.5,11.29,157.5ZM563,0V184L532.21,0H463.27V330.86h58V147.33l30.75,183.53h69V0ZM1265.7,0h108.62V54.09h-38.68v84.32h38.68v54.07h-38.68V275.8h38.68v55.06H1265.7ZM1023.15,330.86h65.47L1047,0H961.15L919.49,330.86H985l3.94-55.06h30.31ZM992.78,221.74l11.28-157.5,11.28,157.5ZM877.86,0,861.24,184,844.62,0H781.76L765.14,184,748.52,0H679.19l41.5,330.83h75.88L813.3,147.33l16.51,183.53h75.88L947.19,0Zm383.37,0h-68.94L1163,153.29V0h-69.94V330.86H1163V177.7l29.26,153.16h68.94l-39.66-165.42ZM1384,1.38h-3V0h7.63V1.38h-3v7.8H1384ZM1389.9,0h1.92l3,7.39,3-7.39h1.91V9.18h-1.4V2.27l-2.87,6.91h-1.31L1391.3,2.3V9.18h-1.4Z"/></g></g></svg>